<svg width="181" height="165" viewBox="0 0 181 165" fill="none" xmlns="http://www.w3.org/2000/svg">
<path d="M53.4196 48.4182C55.6524 48.0055 57.6047 46.6633 58.7896 44.7263L83.6493 4.08906C86.7597 -0.99536 94.1382 -1.01501 97.2756 4.05278L122.478 44.761C123.664 46.6772 125.603 48.0042 127.819 48.4156L173.672 56.9278C179.878 58.08 182.368 65.6303 178.064 70.248L146.717 103.879C145.106 105.608 144.341 107.96 144.628 110.306L150.158 155.474C150.901 161.536 144.851 166.16 139.197 163.854L93.4641 145.202C91.5215 144.41 89.3455 144.413 87.4047 145.209L42.0318 163.836C36.3887 166.153 30.3331 161.555 31.0488 155.497L36.3898 110.287C36.6657 107.952 35.9003 105.614 34.2972 103.894L2.94516 70.2575C-1.36083 65.6378 1.13285 58.0842 7.34297 56.9362L53.4196 48.4182Z" fill="#FECC1C"/>
</svg>
