<svg width="181" height="165" viewBox="0 0 181 165" fill="none" xmlns="http://www.w3.org/2000/svg">
<path d="M141.085 159.224L95.3523 140.573C92.1956 139.285 88.6596 139.289 85.5059 140.584L40.1329 159.211C38.0168 160.08 35.7459 158.355 36.0143 156.084L41.3553 110.874C41.8036 107.079 40.5599 103.28 37.9547 100.485L6.60271 66.8484C4.98797 65.116 5.92309 62.2834 8.2519 61.8529L54.3285 53.3349C57.9569 52.6642 61.1293 50.4831 63.0548 47.3355L87.9145 6.69828C89.0809 4.79162 91.8478 4.78426 93.0244 6.68467L118.226 47.3929C120.154 50.5068 123.306 52.6631 126.907 53.3316L172.759 61.8438C175.087 62.2759 176.02 65.1072 174.406 66.8389L143.059 100.47C140.441 103.279 139.199 107.102 139.665 110.913L145.195 156.082C145.474 158.355 143.205 160.089 141.085 159.224Z" stroke="#FECC1C" stroke-width="10"/>
</svg>
